Coordinates
version=1
nRows=8
nColumns=63
inDegrees=yes

Units are S.I. units (second, meters, Newtons, ...)
If the header above contains a line with 'inDegrees', this indicates whether rotational values are in degrees (yes) or radians (no).

endheader
time	pelvis_tilt	pelvis_list	pelvis_rotation	pelvis_tx	pelvis_ty	pelvis_tz	hip_flexion_r	hip_adduction_r	hip_rotation_r	knee_angle_r	knee_angle_r_beta	ankle_angle_r	subtalar_angle_r	mtp_angle_r	hip_flexion_l	hip_adduction_l	hip_rotation_l	knee_angle_l	knee_angle_l_beta	ankle_angle_l	subtalar_angle_l	mtp_angle_l	L5_S1_Flex_Ext	L5_S1_Lat_Bending	L5_S1_axial_rotation	L4_L5_Flex_Ext	L4_L5_Lat_Bending	L4_L5_axial_rotation	L3_L4_Flex_Ext	L3_L4_Lat_Bending	L3_L4_axial_rotation	L2_L3_Flex_Ext	L2_L3_Lat_Bending	L2_L3_axial_rotation	L1_L2_Flex_Ext	L1_L2_Lat_Bending	L1_L2_axial_rotation	L1_T12_Flex_Ext	L1_T12_Lat_Bending	L1_T12_axial_rotation	Abs_r3	Abs_r2	Abs_r1	Abs_t1	Abs_t2	neck_flexion	neck_bending	neck_rotation	arm_flex_r	arm_add_r	arm_rot_r	elbow_flex_r	pro_sup_r	wrist_flex_r	wrist_dev_r	arm_flex_l	arm_add_l	arm_rot_l	elbow_flex_l	pro_sup_l	wrist_flex_l	wrist_dev_l
      5.75510204	      0.84983062	      1.20253346	     96.34231053	      0.06514244	      1.04607351	      0.51655627	     -3.94581685	     -1.48359597	     -4.92874672	      9.13214513	      0.15938600	     26.25102070	      7.06130077	      0.00000000	     -5.97389738	     -2.29690242	      3.34624330	      7.15722848	      0.12491720	     31.84770682	      3.60967012	      0.00000000	      0.12420450	      0.11234858	      0.01696191	      0.23066017	      0.14942361	      0.01802203	      0.20405557	      0.27316434	      0.01802203	      0.14195332	      0.27316434	      0.01484167	      0.11533630	      0.22910123	      0.01378155	      0.07097045	      0.17402795	      0.01272143	      0.88718031	      1.27090964	      0.09433705	      0.00000000	      0.00000000	      4.92077978	     14.83189552	    -33.00999025	     -3.77769359	    -20.72900168	    -24.89827833	    121.93371086	     40.06868875	    -15.84921511	      2.77672019	     -0.09449754	    -38.66174816	    -18.45383793	    122.60416784	     76.38699962	    -16.77085904	      2.03175189
      5.77551020	      0.89106170	      1.18950676	     96.21432281	      0.06525246	      1.04638750	      0.51714758	     -3.77458378	     -1.50305982	     -5.19401349	      9.22783647	      0.16105613	     26.33541594	      7.63826067	      0.00000000	     -5.92225260	     -2.34389666	      3.11925171	      7.21806184	      0.12597894	     31.83431793	      3.79404055	      0.00000000	      0.12309606	      0.11598871	      0.03495791	      0.22860169	      0.15426499	      0.03714278	      0.20223452	      0.28201496	      0.03714278	      0.14068649	      0.28201496	      0.03058817	      0.11430700	      0.23652418	      0.02840330	      0.07033709	      0.17966652	      0.02621843	      0.87926285	      1.31208752	      0.19442540	      0.00000000	      0.00000000	      5.06606471	     15.23738322	    -31.28810946	     -4.18180276	    -21.15869089	    -25.22755362	    121.61783429	     40.63733685	    -15.52830948	      3.71493721	     -0.13089203	    -38.85261989	    -18.55202840	    122.63520100	     74.33066519	    -16.20211961	      1.35518105
      5.79591837	      0.93401730	      1.19867570	     96.21062636	      0.06553380	      1.04660819	      0.51839564	     -3.61616840	     -1.45633470	     -5.06838135	      9.28793462	      0.16210504	     26.43023957	      7.63586351	      0.00000000	     -5.81163178	     -2.41804211	      3.11983547	      7.32792875	      0.12789648	     31.80163112	      3.88699588	      0.00000000	      0.09647559	      0.11647550	      0.08637709	      0.17916482	      0.15491241	      0.09177565	      0.15849975	      0.28319853	      0.09177565	      0.11026195	      0.28319853	      0.07557995	      0.08958723	      0.23751684	      0.07018138	      0.05512615	      0.18042055	      0.06478281	      0.68911551	      1.31759415	      0.48040344	      0.00000000	      0.00000000	      6.36627671	     16.17698426	    -28.35972199	     -5.22038082	    -21.66706877	    -26.26234844	    122.50767381	     41.05547498	    -16.37385901	      5.30535773	      0.30205420	    -39.48817866	    -18.52256284	    122.81807056	     74.15198278	    -16.47866961	      1.94641908
      5.81632653	      0.92148327	      1.07370377	     96.01815532	      0.06630113	      1.04680557	      0.51973792	     -3.30695183	     -1.46372936	     -4.82976347	      9.30971641	      0.16248520	     26.50128471	      7.49902481	      0.00000000	     -5.61135908	     -2.39083700	      2.88505737	      7.35494580	      0.12836802	     31.75150628	      3.84821011	      0.00000000	      0.07467342	      0.09456595	      0.11769403	      0.13867601	      0.12577271	      0.12504991	      0.12268096	      0.22992764	      0.12504991	      0.08534425	      0.22992764	      0.10298228	      0.06934174	      0.19283888	      0.09562640	      0.04266839	      0.14648265	      0.08827052	      0.53338476	      1.06974889	      0.65457890	      0.00000000	      0.00000000	      7.49056424	     17.38783300	    -24.79262752	     -6.73328540	    -22.09766784	    -27.70592277	    124.16642752	     42.41029302	    -17.04106751	      7.52517795	     -0.33711519	    -40.29858678	    -19.88812214	    123.96614967	     72.99842775	    -16.91830281	      3.27355276
      5.83673469	      0.73671965	      0.91055243	     96.02009182	      0.06781632	      1.04698162	      0.52056669	     -3.09889385	     -1.50630978	     -3.61210897	      9.20385862	      0.16063764	     26.43667955	      6.11319847	      0.00000000	     -5.38759053	     -2.28204561	      2.76151438	      7.36859503	      0.12860624	     31.66132930	      4.08325376	      0.00000000	      0.05139119	      0.03192923	     -0.19518578	      0.09543858	      0.04246587	     -0.20738489	      0.08443059	      0.07763272	     -0.20738489	      0.05873499	      0.07763272	     -0.17078756	      0.04772186	      0.06511008	     -0.15858844	      0.02936493	      0.04945837	     -0.14638933	      0.36708215	      0.36118980	     -1.08556474	      0.00000000	      0.00000000	      7.68355749	     17.56746436	    -19.47864635	     -7.10979069	    -22.72377785	    -27.77205512	    125.60242954	     50.32021397	    -17.20020530	     11.95812090	     -4.79077600	    -41.45888584	    -25.50827858	    126.89386839	     67.79710178	    -17.85597126	      4.33969098
      5.85714286	      0.54471292	      0.58019857	     95.94361084	      0.06946110	      1.04684440	      0.52150606	     -2.73371040	     -1.58706370	     -2.68674166	      9.05913334	      0.15811170	     26.33185000	      5.08138065	      0.00000000	     -5.02590712	     -2.10257894	      2.88779536	      7.27362903	      0.12694878	     31.49410221	      3.80165184	      0.00000000	      0.04415034	     -0.05393188	     -0.39708670	      0.08199160	     -0.07172940	     -0.42190462	      0.07253460	     -0.13112997	     -0.42190462	      0.05045943	     -0.13112997	     -0.34745086	      0.04099801	     -0.10997789	     -0.32263294	      0.02522751	     -0.08354048	     -0.29781502	      0.31536149	     -0.61008820	     -2.20847709	      0.00000000	      0.00000000	      8.21321244	     16.64174686	    -15.33803655	     -8.59992958	    -23.94778474	    -28.78061542	    127.87862166	     53.95705479	    -17.38782549	     15.13462883	     -8.79122705	    -42.30423160	    -31.10637421	    129.80383912	     63.38579587	    -18.85121395	      5.53250873
      5.87755102	      0.38385600	      0.29096009	     95.71811274	      0.07104357	      1.04674731	      0.52254160	     -2.39485222	     -1.70583154	     -2.14916401	      8.96342491	      0.15644128	     26.22820356	      4.84478011	      0.00000000	     -4.70812086	     -1.92629828	      2.97609394	      7.19751469	      0.12562033	     31.35003575	      3.40158089	      0.00000000	      0.03370651	     -0.14572652	     -0.49830547	      0.06259636	     -0.19381627	     -0.52944957	      0.05537642	     -0.35431946	     -0.52944957	      0.03852317	     -0.35431946	     -0.43601729	      0.03129986	     -0.29716552	     -0.40487320	      0.01925990	     -0.22573038	     -0.37372911	      0.24076222	     -1.64848752	     -2.77142555	      0.00000000	      0.00000000	      8.70238931	     14.26445526	    -12.47248268	    -10.43164222	    -25.67936480	    -30.54817992	    130.29026670	     55.54909411	    -17.85760932	     17.71409200	    -11.83639147	    -42.62271896	    -36.16512931	    132.27751928	     60.82294362	    -20.11893376	      6.99220527
      5.89795918	      0.24850650	     -0.02960760	     95.80443878	      0.07225103	      1.04664613	      0.52370503	     -2.10554712	     -1.77798425	     -2.03119915	      8.79490970	      0.15350013	     25.95756705	      4.66704790	      0.00000000	     -4.27835568	     -1.79192750	      3.38013937	      7.15307937	      0.12484479	     31.19112631	      2.87820378	      0.00000000	      0.04696209	     -0.23926385	     -0.68601740	      0.08721330	     -0.31822093	     -0.72889348	      0.07715402	     -0.58174613	     -0.72889348	      0.05367297	     -0.58174613	     -0.60026522	      0.04360900	     -0.48790685	     -0.55738913	      0.02683414	     -0.37061971	     -0.51451305	      0.33544551	     -2.70660057	     -3.81542296	      0.00000000	      0.00000000	      8.61561346	     11.06987270	    -10.02329453	    -11.73313052	    -27.92249727	    -31.95219747	    132.06371551	     56.84247845	    -18.37647058	     18.88065462	    -14.71274625	    -42.36083994	    -41.09936898	    134.16962823	     59.19914674	    -21.35371499	      7.71889164
